<svg viewBox="0 0 48 48" xmlns="http://www.w3.org/2000/svg">
  <!-- Gaming controller design -->
  <defs>
    <linearGradient id="gp" x1="0%" y1="0%" x2="100%" y2="100%">
      <stop offset="0%" stop-color="#AB47BC"/>
      <stop offset="100%" stop-color="#7B1FA2"/>
    </linearGradient>
  </defs>
  <!-- Controller body -->
  <path d="M8 20 C8 16 12 14 18 14 L30 14 C36 14 40 16 40 20 L42 32 C42 36 39 38 36 36 L32 30 L16 30 L12 36 C9 38 6 36 6 32 Z" fill="url(#gp)"/>
  <!-- D-pad -->
  <rect x="13" y="20" width="3" height="8" rx="1" fill="white" opacity="0.9"/>
  <rect x="11" y="22" width="7" height="3" rx="1" fill="white" opacity="0.9"/>
  <!-- Buttons -->
  <circle cx="33" cy="20" r="2" fill="#FF4655" opacity="0.9"/>
  <circle cx="37" cy="24" r="2" fill="#00D4FF" opacity="0.9"/>
  <circle cx="29" cy="24" r="2" fill="#8BC34A" opacity="0.9"/>
  <circle cx="33" cy="28" r="2" fill="#FFD700" opacity="0.9"/>
  <!-- Analog sticks -->
  <circle cx="20" cy="26" r="3" fill="white" opacity="0.15" stroke="white" stroke-width="0.8" stroke-opacity="0.5"/>
</svg>
