<svg xmlns="http://www.w3.org/2000/svg" viewBox="0 0 64 64"><path d="M 25.90625 -0.037109375 A 20.355 20.355 0 0 0 6.1464844 20.310547 L 6.1464844 20.648438 A 42.859 42.859 0 0 0 20.054688 52.4375 A 43.64 43.64 0 0 0 49.621094 64 C 50.738094 64 51.861422 63.956141 52.982422 63.869141 L 61.082031 63.236328 A 1 1 0 0 0 61.808594 61.644531 L 61.800781 61.642578 L 59.429688 58.433594 A 63.674 63.674 0 0 1 46.855469 20.310547 A 20.355 20.355 0 0 0 25.90625 -0.037109375 z M 12.550781 13.541016 A 1 1 0 0 1 13.210938 13.814453 L 21.455078 21.654297 A 1 1 0 0 1 20.873047 23.373047 L 17.931641 23.691406 A 5.636 5.636 0 0 1 17.310547 23.724609 A 5.773 5.773 0 0 1 11.521484 17.96875 L 11.521484 14.539062 A 1 1 0 0 1 12.550781 13.541016 z M 34.013672 13.541016 A 1 1 0 0 1 35.072266 14.539062 L 35.072266 17.96875 A 5.772 5.772 0 0 1 29.285156 23.724609 A 5.65 5.65 0 0 1 28.664062 23.691406 L 25.722656 23.373047 A 1 1 0 0 1 25.140625 21.654297 L 33.384766 13.814453 A 1 1 0 0 1 34.013672 13.541016 z M 33.072266 16.865234 L 28.082031 21.611328 L 28.878906 21.699219 A 3.829 3.829 0 0 0 31.828125 20.751953 A 3.7 3.7 0 0 0 33.072266 17.964844 L 33.072266 16.865234 z M 13.525391 16.871094 L 13.521484 17.96875 A 3.7 3.7 0 0 0 14.767578 20.753906 A 3.81 3.81 0 0 0 17.716797 21.703125 L 18.517578 21.617188 L 13.525391 16.871094 z M 19 26 L 28 26 A 1 1 0 0 1 29 27 L 29 27.5 A 5.5 5.5 0 0 1 18 27.5 L 18 27 A 1 1 0 0 1 19 26 z M 20.035156 28 A 3.5 3.5 0 0 0 23.5 31 A 3.5 3.5 0 0 0 26.964844 28 L 20.035156 28 z M 38.521484 29.701172 A 1.0003076 1.0003076 0 0 1 39.048828 31.537109 L 35.263672 34.007812 A 3.263 3.263 0 0 0 33.841797 36.09375 A 3.224 3.224 0 0 0 34.314453 38.539062 A 3.323 3.323 0 0 0 38.890625 39.484375 L 41.189453 37.976562 A 1.0011155 1.0011155 0 0 1 42.289062 39.650391 L 42.283203 39.650391 L 39.984375 41.15625 A 5.325 5.325 0 0 1 32.646484 39.644531 A 5.264 5.264 0 0 1 34.169922 32.332031 L 37.953125 29.863281 A 1.0003076 1.0003076 0 0 1 38.521484 29.701172 z M 5.7890625 32.859375 L 4.390625 33.779297 A 5.259 5.259 0 0 0 2.109375 37.140625 A 5.194 5.194 0 0 0 2.8691406 41.089844 A 5.335 5.335 0 0 0 9.9003906 42.800781 A 44.066 44.066 0 0 1 5.7890625 32.859375 z"/></svg>